
<global>
amp_veltrack=0
ampeg_attack=0.01
ampeg_release=0.35
</global>

<group>
group_label=PP
lpc_hicc1=63
lpc_locc1=0

<region>
hivel=127
key=A#5
loop_end=259986
loop_mode=loop_continuous
loop_start=87856
loop_xfade=32669
lovel=0
lpc=NVcJQgtQMcIPWGJCtVsqwlh3OUJfYvfBYfoGQobwjMEoh6tBpZkawYO3j0HYbNTAVxRVQcKxar96/stAg9TMQBJAIkD2WpFAm/HjQCP+Xj/ZJhBBfHG7PAJRH0ES/BNA
lpc_rms=-25.94
sample=Piccolo_sustain_PP_A#4.opus
</region>

<region>
hivel=127
key=A#6
loop_end=253769
loop_mode=loop_continuous
loop_start=85755
loop_xfade=31888
lovel=0
lpc=3+25QvZFg8LbH2VCcp+5we1qRUK1yjRA51Y0QmzoxUDqCgBCQKKkQTi/mEFQCe5BIj0FwZeuLcLO54JCtq7WwXRW+0G+47jBbqYHQSDmmcFJyA1B6xRRwTM02D4n8ojA
lpc_rms=-12.19
sample=Piccolo_sustain_PP_A#5.opus
</region>

<region>
hivel=127
key=A5
loop_end=262322
loop_mode=loop_continuous
loop_start=88645
loop_xfade=32962
lovel=0
lpc=xHDCQSwYEcIYcCFChuXpwcOI3UGoD5PBx7eVQcrePcE4iUVBrKeYwGsT7ECElwzAwHWdQM6XlT+bigFAz0otQJqZZj9teXFAM9aKP0WpxT+AyWVADx9LPokQN0A28ZJA
lpc_rms=-31.25
sample=Piccolo_sustain_PP_A4.opus
</region>

<region>
hivel=127
key=A6
loop_end=251047
loop_mode=loop_continuous
loop_start=84835
loop_xfade=31546
lovel=0
lpc=AKTGQlrRjsIbhndC7gQLwnrBZkIxZhHB/Aw8Qui7LEGF1ctBHZW7QTeOgEGSn49BoIvqQUpYFcI57brAY7MVQl2NgMAc61pBybulwNge5sCdoCLAmEBlwGd438BFnwQ/
lpc_rms=-12.96
sample=Piccolo_sustain_PP_A5.opus
</region>

<region>
hivel=127
key=B5
loop_end=236531
loop_mode=loop_continuous
loop_start=79930
loop_xfade=29721
lovel=0
lpc=sX5DQr4micKi2olCKtxdwvLjSkKtZiLCwGMBQol3lcGTNW9B3eQOwbHlD0Gy/ZnAHWj5QIZWl8Cp+clABEw8wEgAsUA+6V7At9z/QHeGB8GM4E5BmOH5wOUINkFXz5jB
lpc_rms=-25.43
sample=Piccolo_sustain_PP_B4.opus
</region>

<region>
hivel=127
key=B6
loop_end=249110
loop_mode=loop_continuous
loop_start=84181
loop_xfade=31302
lovel=0
lpc=abiFQm4TDsIIFxlCWuZHwLof2UHAP1VBJbPWQd5KiEFW10VBEKD0QQIOYkCJbMRBJPUSwlPJ2UEfkpXAQj1CQSFIN8A/yz3BgikbQfPChsHQ+NhAqh3iwHNJkkA2H7DA
lpc_rms=-15.23
sample=Piccolo_sustain_PP_B5.opus
</region>

<region>
hivel=127
key=C#6
loop_end=260539
loop_mode=loop_continuous
loop_start=88043
loop_xfade=32738
lovel=0
lpc=ubqYQs14tMKlWo1CEblswnwegkK28T3CwuREQty48cFDwglCDdOTwfeXuUEzvajAFU4EQYwN9EBOhbO+CHRcQdt6mcDm1T9B8C7yQCYYRMDx8YdBYK4ewnRIA0FmlZ9B
lpc_rms=-19.78
sample=Piccolo_sustain_PP_C#5.opus
</region>

<region>
hivel=127
key=C#7
loop_end=248147
loop_mode=loop_continuous
loop_start=83855
loop_xfade=31181
lovel=0
lpc=5jiUQhuQJ8L/9glCugNQQPFnEELPEZZBP4XjQbBtyUHGnshBnqfcQefBjEH9YklAYIsnQvvlEkE5tBhCPXK5QKKcCkJ5X7pAMlbvQVnUM0HrTdBBTwDbvy08Er/DAwRC
lpc_rms=-22.13
sample=Piccolo_sustain_PP_C#6.opus
</region>

<region>
hivel=127
key=C6
loop_end=250600
loop_mode=loop_continuous
loop_start=84684
loop_xfade=31489
lovel=0
lpc=GhMpQrkURsJBez5CKkAQwvo+CEIr6MfBp5yWQeZ4C8F24x1BZn3awEea0kBCT2c/an+mPwXecT+e5oG/Fj/4QNG5Z8BTng1A2YmmP4t0n0Ag9CzAvLq5QLoqfcEGnKC/
lpc_rms=-29.25
sample=Piccolo_sustain_PP_C5.opus
</region>

<region>
hivel=127
key=C7
loop_end=257931
loop_mode=loop_continuous
loop_start=87161
loop_xfade=32411
lovel=0
lpc=xoO0Qhm2WMJPTEFCF/ttwbZbIULQuWRBKXg9QuDkBEA+Xi5CDUGAv18vDUJv7gDCgtjQQMSwAUI2g43A8IrAQSc+xMFZ2ERBCyqvwW+Ng0HERnPBotTRQfF/kMFRa5pA
lpc_rms=-14.18
sample=Piccolo_sustain_PP_C6.opus
volume=-6.0
</region>

<region>
hivel=127
key=D#5
loop_end=262518
loop_mode=loop_continuous
loop_start=88711
loop_xfade=32987
lovel=0
lpc=wt22Qd7ZSMLec1ZC5K8qwtPr8UGs4KXB5Pt1Qa1DBsEJUIxAf705wG8+E0C4wQm/rkzbv0cgjT/zaK0/vxpAP6i+PsDB10NAFk4Bv/2drj0r9Jk+kONav1oHT76Y3Pc/
lpc_rms=-30.90
sample=Piccolo_sustain_PP_D#4.opus
</region>

<region>
hivel=127
key=D#6
loop_end=248733
loop_mode=loop_continuous
loop_start=84053
loop_xfade=31255
lovel=0
lpc=R0rGQZiSpMHpj6JBsUNEwdBbV0GcbKXAt7QCQTatq78+GspA0TvPPtBUoUBKiXM/RQaUQNXlcD8/q3FAJqZpQL24GkC4xDFAMBuGP3YTGcGRXFtAozHHPn25+z4IyrQ/
lpc_rms=-28.44
sample=Piccolo_sustain_PP_D#5.opus
</region>

<region>
hivel=127
key=D#7
loop_end=251269
loop_mode=loop_continuous
loop_start=84910
loop_xfade=31573
lovel=0
lpc=/e9yQuW7D8IU0vJB9lOmwAP4wkE8QAFBjO/vQW6W6kAcCsVBDQSUwdf/mED+LJpBlWY8QUFFD0HgrR3AnxnOwNx7UsCSN7bAXLg7QXAApcHOWcdAVOd+wLCTR8H41rI/
lpc_rms=-28.26
sample=Piccolo_sustain_PP_D#6.opus
</region>

<region>
hivel=127
key=D5
loop_end=260930
loop_mode=loop_continuous
loop_start=88175
loop_xfade=32787
lovel=0
lpc=SPHNQZI8bcL0pIFCZoZVwjQfC0ILcaHB1YipQYOVoMGGG2lBj64vwaNL3kC/Nx/A7wbxP0QzAcCLxSA+UcF5QDdnwcBj2sBAWlIwwGAKQz8kC8C/qBtivV34UD8eRLQ/
lpc_rms=-30.04
sample=Piccolo_sustain_PP_D4.opus
</region>

<region>
hivel=127
key=D6
loop_end=241282
loop_mode=loop_continuous
loop_start=81535
loop_xfade=30319
lovel=0
lpc=J9mJQk+7YcIfRgVCmMzmwbCe5EGMfTjBmcC4QR4hBMG+EKVBz2LYvwkIF0GOpZlAU+RLQXSdzj/Bc8dAwxw2QWOwL0CGFjlBB3Q+QNFjBEEGOgXCT8kRQVzDJkHG629B
lpc_rms=-21.87
sample=Piccolo_sustain_PP_D5.opus
</region>

<region>
hivel=127
key=D7
loop_end=247386
loop_mode=loop_continuous
loop_start=83598
loop_xfade=31086
lovel=0
lpc=opQiQh6lhcHuXI5B0vcgQFoBjkG+/uBAvileQROp6EBSgxpBMsAPQVpZV8GjRl5AP3QCQb7sD8AMFLZAyM+CwB+oyUBD2BzAWDAAQSqmAUD9z2fAjeBLQMOS3EDEkJm/
lpc_rms=-28.59
sample=Piccolo_sustain_PP_D6.opus
</region>

<region>
hivel=127
key=E5
loop_end=254254
loop_mode=loop_continuous
loop_start=85919
loop_xfade=31949
lovel=0
lpc=2TSdQcdnPMJ7zVNCevMpwv44C0I8zuXB5kCmQYO9NcGrUAVBOx4UwRUv5kCjDci/tJODvwQKMUD5XpXAWXLEQKwKoMB/tpZA+xCQwMZbaUDLQ0TAQLzlQNqmHsHyeb9A
lpc_rms=-30.34
sample=Piccolo_sustain_PP_E4.opus
</region>

<region>
hivel=127
key=E6
loop_end=239254
loop_mode=loop_continuous
loop_start=80850
loop_xfade=30064
lovel=0
lpc=+lqjQTGafMEypxZBlTqIwFpUA0EpjxrAOTGBQJTOjb93fYtAWqkOv22nW0ATN5Q9cwUfQFH0xT+G9rM/RbjAP0YHMkC+1SC/diQ8wRo2ykBEhIw/xC8xPx0xQcC7SJg/
lpc_rms=-30.28
sample=Piccolo_sustain_PP_E5.opus
</region>

<region>
hivel=127
key=E7
loop_end=246707
loop_mode=loop_continuous
loop_start=83369
loop_xfade=31000
lovel=0
lpc=7+qOQrKVusGaUgVC4BGBQE7T1EGU26tBdLvlQSicnEADpqVBRuMOwkHBtkFlCVfAqMQWQWCsHkAoNcw/un6AwN5ZQkFYEhdBerBMwdGAREHxNC9ABZkvP3b2Fj/yOrTA
lpc_rms=-25.55
sample=Piccolo_sustain_PP_E6.opus
</region>

<region>
hivel=127
key=F#5
loop_end=245244
loop_mode=loop_continuous
loop_start=82874
loop_xfade=30816
lovel=0
lpc=tFciQSIhqMGW8alBE099wae5W0FTByfB0MYIQQRR8MDHkMRARYqAwLu2ZUCdVOC/YcVEP1UNJb4xmbc9X4/aPwO1IsAadUNAXMIFwMDFBEBLDKu/zIs6QIUgmMA2dXBA
lpc_rms=-36.76
sample=Piccolo_sustain_PP_F#4.opus
</region>

<region>
hivel=127
key=F#6
loop_end=254305
loop_mode=loop_continuous
loop_start=85936
loop_xfade=31955
lovel=0
lpc=rgwCQsjTusFdH4JB7Pj+wJI5lkFCEirAVEtVQRlA5D+hKK5APudLQPL/jkDQhGJApxRfQN5vmkCNQopAS4FuP8MXdsFaGaNAYQHxQFeSJ8AEStK/5XKKwJKZBcCr/RLA
lpc_rms=-23.38
sample=Piccolo_sustain_PP_F#5.opus
</region>

<region>
hivel=127
key=F#7
loop_end=241028
loop_mode=loop_continuous
loop_start=81449
loop_xfade=30287
lovel=0
lpc=ITYyQt2fXsFBW6NBWyE6QWmgYUGbF7lBuK6iQRbIrUAkLXjAu0riQWAB5EA9C31B5BolQcV5TUBz+oNBTvCOwESmwEH3kghBSakPQYgRMEFQPPlAQJEDQRnnFUEqxyxA
lpc_rms=-25.48
sample=Piccolo_sustain_PP_F#6.opus
tune=-100.00
</region>

<region>
hivel=127
key=F5
loop_end=259964
loop_mode=loop_continuous
loop_start=87848
loop_xfade=32666
lovel=0
lpc=WhooQreDo8KY/ZFCDapCwkPQGkIun/TBAjjHQRkvcMGWCj9BsX8IwcCX2EDwJinACA3Wv98fzz96ohk/QmKhQCqXfMCdbetAUM3EwKHdTECxv23A6s29QCdv5MA1pwtB
lpc_rms=-28.63
sample=Piccolo_sustain_PP_F4.opus
</region>

<region>
hivel=127
key=F6
loop_end=254593
loop_mode=loop_continuous
loop_start=86033
loop_xfade=31991
lovel=0
lpc=vQZiQZWwHMG6yuZAVCrNv8UUd0DVjaA/5AeFQL1J+j7VITdALN/EPrvnIUDW9ag+WqhAQMUU9ztbdjNAHUlhP9xyyz+gLxLBbaibQPE7ur54pAw/ySW3v8J+jD7wMBrA
lpc_rms=-32.09
sample=Piccolo_sustain_PP_F5.opus
</region>

<region>
hivel=127
key=F7
loop_end=244859
loop_mode=loop_continuous
loop_start=82744
loop_xfade=30768
lovel=0
lpc=TKSRQnp8LsKVfCpCs9B9QHLB+EH2QAJC40ORQacR+UGZ8hjBPk0RQcuzFEJri5DAb8HsQQ05AsFtZAlBg30JwdYPrEEI9unBPmeyQeqiEMEDf4i/UGHLwJtB4MBEp/1A
lpc_rms=-19.18
sample=Piccolo_sustain_PP_F6.opus
</region>

<region>
hivel=127
key=G#5
loop_end=260322
loop_mode=loop_continuous
loop_start=87969
loop_xfade=32711
lovel=0
lpc=Fkk8QljXmsKVobRCjoWpwi28q0KZo4fCxRWEQv23XMJKV0tCFKgYwr1ZFkJvnKLB/T5/QcEn4r/ycdW/TWI7QT9JDcFR25BBM44/wV7Li0Hp/U/Bd1eDQRaIL8HHo4RB
lpc_rms=-20.47
sample=Piccolo_sustain_PP_G#4.opus
</region>

<region>
hivel=127
key=G#6
loop_end=249557
loop_mode=loop_continuous
loop_start=84332
loop_xfade=31358
lovel=0
lpc=NjivQRuxcMEjLlJB/ol9wOzdLEFlO4PA48MRQbW1Kr+q0uFAatijvr4PoECpx3A/abC9QIsIIb7haNrAT6zevhBqgkA2xwPAmiFuP9ZnTsDZrFBACq4cwD3mBr8Swhc/
lpc_rms=-25.94
sample=Piccolo_sustain_PP_G#5.opus
</region>

<region>
hivel=127
key=G#7
loop_end=221664
loop_mode=loop_continuous
loop_start=74906
loop_xfade=27853
lovel=0
lpc=Js8eQi+2mMFCOfpBrLKvQLBFyEE8J3VB2sRzQX8sBEEGrNlBGRgLQaljwEEcZ/dAc4bTQWyUqkANclpBxfadQVAKCUGASa1B0sU3QBzHmEED8UXA73YSQXIXjUCkrHPA
lpc_rms=-14.12
sample=Piccolo_sustain_PP_G#6.opus
tune=-100.00
</region>

<region>
hivel=127
key=G5
loop_end=263332
loop_mode=loop_continuous
loop_start=88987
loop_xfade=33089
lovel=0
lpc=eO1+QvPX6ML+uetCq3K6wpItp0JUb1nCLA0HQifno8FOXX9BfVaXwMS86EC1qErAW3nrQP/8Zr8vzUy77eoVQTVP8cCKFCdBdjlEwKT4D0H6G/7AcyKGQZLTusGjErZB
lpc_rms=-24.32
sample=Piccolo_sustain_PP_G4.opus
</region>

<region>
hivel=127
key=G6
loop_end=252389
loop_mode=loop_continuous
loop_start=85289
loop_xfade=31714
lovel=0
lpc=ySubQZIPfMGor0hB8g/twNThCEHkyUnAoKSlQK8yar8MtH5Ab6piv9F3nkCH056+WLWUQH3kQj/dujNAohE4waVl20DTDPm/QxWXQHCa7L/wWOg+Ho74P5o+mb/ffvQ/
lpc_rms=-29.65
sample=Piccolo_sustain_PP_G5.opus
</region>

<region>
hivel=127
key=G7
loop_end=249064
loop_mode=loop_continuous
loop_start=84165
loop_xfade=31296
lovel=0
lpc=9BQQQnxFacEs5/5B1yG2QKo7vEHYGpFB2/3TQfmaDb6lF9dBPOp4QfYjnEGoVaFBQaeNQSkFmUGDphxBr6G3QUava0GcoHhBAU+/QTl8D0EfEJpBibg7QYLDzEBUR0BB
lpc_rms=-23.05
sample=Piccolo_sustain_PP_G6.opus
tune=-100.00
</region>
</group>

<group>
group_label=FF
lpc_hicc1=127
lpc_locc1=64

<region>
hivel=127
key=A#5
loop_end=259181
loop_mode=loop_continuous
loop_start=87584
loop_xfade=32568
lovel=0
lpc=kVJbQbMRbsHWt5BBlMcUwbDxKkFyEpTAiIERQZjojMAB8f1AoGgQwP/dwEBbJaS/zjquQN3w7r4UG41A0x0oPhzjl0Av0QS+zs+JQPZ8QD8oTFxAv2xoP2NChUBD6t0/
lpc_rms=-30.92
sample=Piccolo_sustain_FF_A#4.opus
</region>

<region>
hivel=127
key=A#6
loop_end=258436
loop_mode=loop_continuous
loop_start=87332
loop_xfade=32474
lovel=0
lpc=p68JQngW2cFQ4tpBVw6dwEvXekE6vARBe9hkQQy4AEFWAmdBnFErQSasSkGGc3RBAebPP8CibcAWesJB3pt7wFX5Q0HKxgLAwhalQIJO4L8Wz7FAh4YlwKKOXkA4tSO/
lpc_rms=-20.96
sample=Piccolo_sustain_FF_A#5.opus
</region>

<region>
hivel=127
key=A5
loop_end=255559
loop_mode=loop_continuous
loop_start=86360
loop_xfade=32112
lovel=0
lpc=fDyLQWUVusFiVNdBM7OEwSEudEHmSwrBbQNCQfQ65sB/nhpBPaBnwElLwUAQPkG/qzWFQKucIj+uEwlAzOVCQFo+XT+k3kZApKm7P73sHEDV+lA+W+HkQBwzv8CPABhB
lpc_rms=-28.76
sample=Piccolo_sustain_FF_A4.opus
</region>

<region>
hivel=127
key=A6
loop_end=254231
loop_mode=loop_continuous
loop_start=85911
loop_xfade=31946
lovel=0
lpc=9R9EQn9+N8JULSlCiytdwSjz40FI1w9BqESBQXzuhkFdUFhBOhKTQcAjkEHOHY5BoL/BQTvJ5sA+9+RAGAEMQnOltcDj0IVBzakzvwM4W0BVyL5AepFsPu+/oUAZtc6+
lpc_rms=-19.09
sample=Piccolo_sustain_FF_A5.opus
</region>

<region>
hivel=127
key=B5
loop_end=255341
loop_mode=loop_continuous
loop_start=86286
loop_xfade=32085
lovel=0
lpc=EIKlQRgfxcGN98ZB2rl0wdTYfEHxLiHBnXk8Qeil3MDwKxJBUsRSwPC/rEDW1Ma/T/WwQEdOtb/DjHFAHm0ePsxQoUBBXDnAJE3KQE2S379Yj4xAsnJNPQUumkAtybfA
lpc_rms=-26.28
sample=Piccolo_sustain_FF_B4.opus
</region>

<region>
hivel=127
key=B6
loop_end=256412
loop_mode=loop_continuous
loop_start=86648
loop_xfade=32220
lovel=0
lpc=JEknQj0A/8FqsvpBEnRgwTvmtEGiWgbA4KKcQTiNHkGY+hhBhcBKQeVku0Ajj1RBASXLwYbhDEI/D+zAlkGDQUXgor7lnahAZZ0MQOXfhsAkKgVBZvNgwAbLBEEltxO+
lpc_rms=-21.02
sample=Piccolo_sustain_FF_B5.opus
</region>

<region>
hivel=127
key=C#6
loop_end=252553
loop_mode=loop_continuous
loop_start=85344
loop_xfade=31735
lovel=0
lpc=ZdHOQQue4MFd745BfSkuwUQ+L0HL+kPAounQQI2L/r8ZsLJA1i0fv0lLs0DDGPG/OkzCQDZFU7+u75dA5nAqv7/pqEBm3cu/N7PWQHD8wr6q4F5AiIM4waZ9K0DIjPZA
lpc_rms=-24.19
sample=Piccolo_sustain_FF_C#5.opus
</region>

<region>
hivel=127
key=C#7
loop_end=248365
loop_mode=loop_continuous
loop_start=83929
loop_xfade=31208
lovel=0
lpc=lEREQvOy7MHh+fpBjQEGQIX6vUGCeptBsYWdQZWum0EurpNBBTDYQaeHW0Gmw1k/h70PQrqBNz82+eFBz2LOQPGxV0ENFzxBR4lnQRHO80AusE9BxG9pv85eGj/BMItB
lpc_rms=-18.44
sample=Piccolo_sustain_FF_C#6.opus
</region>

<region>
hivel=127
key=C6
loop_end=261887
loop_mode=loop_continuous
loop_start=88498
loop_xfade=32908
lovel=0
lpc=iaWkQfDn1sFD/9pB8qt5wUdLXEFZFrfAJA8VQQuMmcCQnAVBFj8OwAX6qkA7She+JFh4QBq/vz+0yg9AO81CQF89gz//c1RAsHp8P+zJgUCWnCu/67oLQYcMUcGF091A
lpc_rms=-25.20
sample=Piccolo_sustain_FF_C5.opus
</region>

<region>
hivel=127
key=C7
loop_end=236601
loop_mode=loop_continuous
loop_start=79954
loop_xfade=29730
lovel=0
lpc=47uVQiTpYsJWJFlCmz+OwdY+SkIbrHJBUkrjQQNVrkCNjR1CohzVQJ44RkL+pyzC4uivQdJm00ErSvPAZ0mMQROPz8HYcRZBl4gfv1+Mf0DozwvBHR1NQOVaH8Hg6/5A
lpc_rms=-15.62
sample=Piccolo_sustain_FF_C6.opus
</region>

<region>
hivel=127
key=D#5
loop_end=255542
loop_mode=loop_continuous
loop_start=86354
loop_xfade=32110
lovel=0
lpc=tPxNQXiJ28EcBOZBVKzOwWYzs0EVvIXB6ftbQYmoPcHXvR9B2SbnwOLXsEC5JmrAXJROQEDPN8C2elI/++pJP8Dbub90yB9A0h23vznZLEAqd4fAk/9/QEi0ncCYXnRA
lpc_rms=-31.67
sample=Piccolo_sustain_FF_D#4.opus
</region>

<region>
hivel=127
key=D#6
loop_end=252662
loop_mode=loop_continuous
loop_start=85381
loop_xfade=31748
lovel=0
lpc=DtjiQSbRvMG1Wp1BEOUVwUADWkFXnITAwZhdQTu0UcA2KENBlO0LP0+ZKUFzMry+ZXEXQWTlHUDPgvVA76o/QIpUC0H/qBpARQQ5QP7IuMDWWHVAQtyJQM/Z2D/9SHBA
lpc_rms=-23.05
sample=Piccolo_sustain_FF_D#5.opus
</region>

<region>
hivel=127
key=D#7
loop_end=254746
loop_mode=loop_continuous
loop_start=86085
loop_xfade=32010
lovel=0
lpc=zMwFQmzQ2MHdwdFBZV/9wCkxeUF6v4hA1XYGQcP1g0DYAkxBKTA4wbzBvEDKnA1BZ9S0P7eRA0HBxXbAWmuHQHp2ykDjK8y+OWUhQb2MHsHR5D1BSCcWwG+Ut7+yJ3NA
lpc_rms=-18.29
sample=Piccolo_sustain_FF_D#6.opus
</region>

<region>
hivel=127
key=D5
loop_end=260886
loop_mode=loop_continuous
loop_start=88160
loop_xfade=32782
lovel=0
lpc=UjctQRQZ1cEYK/NB/VjYwVMwxEFhwZjB0HtgQa6SRMEHCSlBIA//wNEq6UCbqc3ACjSRQBh9R8C5p+E/SOOqPqI56r8V2hhAb9fkv1hL3T+0q+S/EUIVQCsxQsDYxvA/
lpc_rms=-32.79
sample=Piccolo_sustain_FF_D4.opus
</region>

<region>
hivel=127
key=D6
loop_end=262930
loop_mode=loop_continuous
loop_start=88851
loop_xfade=33039
lovel=0
lpc=VBkeQv4fDcItEs9BieqXwbp6aEHWZtO9oJbWQMFEh0BR5GBAoWziQKjkzD9paeZAq6duQM2CbUCePrpAVsChQLRBNkC8Fq5AFrPwQEszyDrZqorBXu4hQYj64z+EGh1B
lpc_rms=-23.33
sample=Piccolo_sustain_FF_D5.opus
</region>

<region>
hivel=127
key=D7
loop_end=258211
loop_mode=loop_continuous
loop_start=87256
loop_xfade=32446
lovel=0
lpc=DFKmQZ0aWcEnRVpBwuY0P8hONkHoc0xAVYEdQSvErEBphO9A7J7PQCZetb9NaS9BMvnBQLT7W0Azoq5AQQOeQHHDxkDHHolA07fOQGQKt0Ast8u//DCfQNFVvT+dD11A
lpc_rms=-25.93
sample=Piccolo_sustain_FF_D6.opus
</region>

<region>
hivel=127
key=E5
loop_end=262257
loop_mode=loop_continuous
loop_start=88624
loop_xfade=32954
lovel=0
lpc=oKBrQYxKEMLeEihCgzQTwnOECULF2+zBA8a2QUspm8E8S4dBDDMvwRZetkAQ1HXAGARgQJDRtb+WjwQ/5OAPQK98ssBwYYpAE4i+v6ym3D+e9p+/PT5iQPAlv8Dp+25A
lpc_rms=-30.53
sample=Piccolo_sustain_FF_E4.opus
</region>

<region>
hivel=127
key=E6
loop_end=262375
loop_mode=loop_continuous
loop_start=88663
loop_xfade=32969
lovel=0
lpc=sq2kQUMLjcF26o9BYDbvwCybNEHxKki+IhjNQHl3MkC7HcdAlCI2QIPQxUBYJhlAvfHHQP0dZ0BhJ5NAIv+EQMKzz0BO7SY9tCyqwAdKw0DyH6U/QdYAQJ1ohL8CkNM/
lpc_rms=-28.72
sample=Piccolo_sustain_FF_E5.opus
</region>

<region>
hivel=127
key=E7
loop_end=252654
loop_mode=loop_continuous
loop_start=85378
loop_xfade=31748
lovel=0
lpc=hd4cQmSZ6sGtxA5CBTE7wawh3EGgp+M+6kWEQQb92UDL2oNBv/ODwV41y0FTpefAkXt1QRNMmD+XMJxAoD2fQCx71UC2JpRARinMwHZFYUHPAgPAZTmMQHNLecCnX4tA
lpc_rms=-17.36
sample=Piccolo_sustain_FF_E6.opus
</region>

<region>
hivel=127
key=F#5
loop_end=250986
loop_mode=loop_continuous
loop_start=84815
loop_xfade=31538
lovel=0
lpc=loglQZCCuMHT18hBKbqTwYoXYEH5ASrB6TkXQboREcFpTxNB/CYAwQAk1EBiuZrA7CqPQCv6AMAl4/m8W+IwP2MBML59GZ0+hymSP8KjD78LUZu+kvn3P3dkTsAQozZA
lpc_rms=-32.08
sample=Piccolo_sustain_FF_F#4.opus
</region>

<region>
hivel=127
key=F#6
loop_end=238852
loop_mode=loop_continuous
loop_start=80714
loop_xfade=30013
lovel=0
lpc=ZxNYQfE4McFS2QVBWSUSv7TqkkBOzwZApwA1QJv59j8RiJNALaYAP1pUhUBC16Q/PlZVQIpLBUAlT1pA7sViP6MRrsB7/YlAdiNHQHbhO8D7QAhAYcArwIFqC0AmZb+/
lpc_rms=-32.41
sample=Piccolo_sustain_FF_F#5.opus
</region>

<region>
hivel=127
key=F#7
loop_end=252114
loop_mode=loop_continuous
loop_start=85196
loop_xfade=31680
lovel=0
lpc=DwI8QvxF98HVDwxCCBjavw6N3EF6lRJBjXvWQQ5ZBkH/IdrAWOT9QcGLxEAidnpB+SLYQLGPT0GYgbNAGRRbQeeMi8BJSp9BhDaIQKq13UCPbbRAfNygQHX3Aj/MJTRB
lpc_rms=-17.96
sample=Piccolo_sustain_FF_F#6.opus
</region>

<region>
hivel=127
key=F5
loop_end=257772
loop_mode=loop_continuous
loop_start=87108
loop_xfade=32391
lovel=0
lpc=CAweQTFoxsEZs/VBHDPUwXxrr0FvlIzBpoRcQQLiMcHejxhBkHT4wG/NxUD1RYnAKpB4QJ3QKcAh15M/smlSvhdrkz7nVC49+eqjvtagSz+eOhe/xZEqQGoyhsBwtydA
lpc_rms=-32.33
sample=Piccolo_sustain_FF_F4.opus
</region>

<region>
hivel=127
key=F6
loop_end=261169
loop_mode=loop_continuous
loop_start=88256
loop_xfade=32817
lovel=0
lpc=EGi5QbELmsEcVJhBgmCtwCUAU0GZ/GU/bSkUQQ9AIz9AghdBphlCQII82EDfLppAXTnOQEJCfkCA3dNAITbDQLnFWUAGCCTBc5hDQf2Wor+Kmg1ALBhYvyqBl7/UobE/
lpc_rms=-28.54
sample=Piccolo_sustain_FF_F5.opus
</region>

<region>
hivel=127
key=F7
loop_end=259891
loop_mode=loop_continuous
loop_start=87824
loop_xfade=32657
lovel=0
lpc=PgPkQSRqkMGWg6dBgfVxvzNvWUEMIeRAIpNWQUhcE0Ghpb6/GglcQGbgfUF5m8y/C7o8QS/hVT7O9ZhACP0IP4ojNUF6jA/B+kFJQVF7nsAtmY1AETTKvxo4F0CrOJA+
lpc_rms=-20.37
sample=Piccolo_sustain_FF_F6.opus
</region>

<region>
hivel=127
key=G#5
loop_end=251027
loop_mode=loop_continuous
loop_start=84828
loop_xfade=31543
lovel=0
lpc=aT+HQSEi+MEZ5w5ClFPOwQEenUFNz1bBt1hPQUpeGME4CixBaVbqwLlO7EDZuI7ARymxQLHP/b8zG9A/agUQQAeJI75EjYA/TqhOPwwaFECJQinA2pAKQUT2FsF/rwdB
lpc_rms=-26.37
sample=Piccolo_sustain_FF_G#4.opus
</region>

<region>
hivel=127
key=G#6
loop_end=256821
loop_mode=loop_continuous
loop_start=86786
loop_xfade=32271
lovel=0
lpc=bSulQYGMksFptYlBHWDJwHOtOkEMvZnAYoMOQZ1cPkAaU8ZAVoLVP1GvukDWPB1AOv+oQHjRlkAOVgnBOGiGQG2qwkAhRnbAvSZDQPtNCD4VN9Q/0+8av+FZ4b83woA/
lpc_rms=-26.66
sample=Piccolo_sustain_FF_G#5.opus
</region>

<region>
hivel=127
key=G#7
loop_end=249846
loop_mode=loop_continuous
loop_start=84429
loop_xfade=31395
lovel=0
lpc=5U4cQs+sk8FvbglC92QGQARP9EGT4DtBEP7nQcO6E0As8v9Be69MQUKNzkGeoH9B9lunQdsSu0FigS9B76CWQQQuqEEK10hBHZTBQdRp80BfwKhBjC4BQDHaFkGWgvZA
lpc_rms=-13.99
sample=Piccolo_sustain_FF_G#6.opus
</region>

<region>
hivel=127
key=G5
loop_end=259436
loop_mode=loop_continuous
loop_start=87670
loop_xfade=32600
lovel=0
lpc=KiJvQeBs98Gakg1CpK7gwVqNr0Ef7mLBBKgiQYjOBMHtYxJBjRnJwDIOpUD0GVDAWk6FQImDV8CN0UhASi38Piv2h79yyEs/UkSjP1wQNz/ihuC/6RfAQPdf/cBp3MpA
lpc_rms=-27.80
sample=Piccolo_sustain_FF_G4.opus
</region>

<region>
hivel=127
key=G6
loop_end=254914
loop_mode=loop_continuous
loop_start=86142
loop_xfade=32031
lovel=0
lpc=7ReJQWCIXMEIPjJBTRIrwEG2tkB+wDDApofJQLekor8IGLtAdVyOv8BEv0AKwV2/TKO6QPNQpbzlDKBAy1ItwVWuz0AoZW++NTGaP5ehmr+H+CVA8yqUPtsFgD3Zl+I+
lpc_rms=-30.14
sample=Piccolo_sustain_FF_G5.opus
</region>

<region>
hivel=127
key=G7
loop_end=245025
loop_mode=loop_continuous
loop_start=82800
loop_xfade=30789
lovel=0
lpc=u4RRQpxCFsL3RTVCZoHxwJh6FUIpy6JAseQPQnI3EcAXfi1BXAj5Qbj18EB6hq9Bc8YzQe99KUE3JYNBEMhpwOoHpUGxoypBHOK0QDYIPUFWAXE/pw6HQaImM8DEczxB
lpc_rms=-13.92
sample=Piccolo_sustain_FF_G6.opus
</region>
</group>

<group>
amp_veltrack=100.0
group_label=RR1
seq_length=2
seq_position=1

<region>
hikey=A#5
hivel=127
lokey=A#5
lovel=46
offset=985
pitch_keycenter=B5
sample=Piccolo_staccato_FF_A#4_RR1.opus
</region>

<region>
hivel=127
key=A#6
lovel=46
offset=37
sample=Piccolo_staccato_FF_A#5_RR1.opus
</region>

<region>
hivel=127
key=A5
lovel=46
offset=343
sample=Piccolo_staccato_FF_A4_RR1.opus
</region>

<region>
hivel=127
key=A6
lovel=46
offset=68
sample=Piccolo_staccato_FF_A5_RR1.opus
</region>

<region>
hivel=127
key=B5
lovel=46
offset=296
sample=Piccolo_staccato_FF_B4_RR1.opus
</region>

<region>
hivel=127
key=B6
lovel=46
sample=Piccolo_staccato_FF_B5_RR1.opus
</region>

<region>
hivel=127
key=C#6
lovel=46
sample=Piccolo_staccato_FF_C#5_RR1.opus
</region>

<region>
hivel=127
key=C#7
lovel=46
offset=27
sample=Piccolo_staccato_FF_C#6_RR1.opus
</region>

<region>
hivel=127
key=C6
lovel=46
offset=78
sample=Piccolo_staccato_FF_C5_RR1.opus
</region>

<region>
hivel=127
key=C7
lovel=46
offset=192
sample=Piccolo_staccato_FF_C6_RR1.opus
</region>

<region>
hivel=127
key=D#5
lovel=46
offset=57
sample=Piccolo_staccato_FF_D#4_RR1.opus
</region>

<region>
hikey=D#6
hivel=127
lokey=D#6
lovel=46
offset=592
pitch_keycenter=E6
sample=Piccolo_staccato_FF_D#5_RR1.opus
</region>

<region>
hivel=127
key=D#7
lovel=46
offset=186
sample=Piccolo_staccato_FF_D#6_RR1.opus
</region>

<region>
hivel=127
key=D5
lovel=46
offset=2514
sample=Piccolo_staccato_FF_D4_RR1.opus
</region>

<region>
hivel=127
key=D6
lovel=46
offset=355
sample=Piccolo_staccato_FF_D5_RR1.opus
</region>

<region>
hivel=127
key=D7
lovel=46
sample=Piccolo_staccato_FF_D6_RR1.opus
</region>

<region>
hivel=127
key=E5
lovel=46
offset=40
sample=Piccolo_staccato_FF_E4_RR1.opus
</region>

<region>
hivel=127
key=E6
lovel=46
offset=194
sample=Piccolo_staccato_FF_E5_RR1.opus
</region>

<region>
hivel=127
key=E7
lovel=46
offset=60
sample=Piccolo_staccato_FF_E6_RR1.opus
</region>

<region>
hivel=127
key=F#5
lovel=46
offset=243
sample=Piccolo_staccato_FF_F#4_RR1.opus
</region>

<region>
hivel=127
key=F#6
lovel=46
offset=399
sample=Piccolo_staccato_FF_F#5_RR1.opus
</region>

<region>
hivel=127
key=F#7
lovel=46
sample=Piccolo_staccato_FF_F#6_RR1.opus
tune=-97
</region>

<region>
hivel=127
key=F5
lovel=46
sample=Piccolo_staccato_FF_F4_RR1.opus
</region>

<region>
hivel=127
key=F6
lovel=46
offset=156
sample=Piccolo_staccato_FF_F5_RR1.opus
</region>

<region>
hivel=127
key=F7
lovel=46
offset=88
sample=Piccolo_staccato_FF_F6_RR1.opus
</region>

<region>
hivel=127
key=G#5
lovel=46
offset=108
sample=Piccolo_staccato_FF_G#4_RR1.opus
</region>

<region>
hivel=127
key=G#6
lovel=46
offset=58
sample=Piccolo_staccato_FF_G#5_RR1.opus
</region>

<region>
hivel=127
key=G#7
lovel=46
offset=122
sample=Piccolo_staccato_FF_G#6_RR1.opus
</region>

<region>
hivel=127
key=G5
lovel=46
offset=78
sample=Piccolo_staccato_FF_G4_RR1.opus
</region>

<region>
hivel=127
key=G6
lovel=46
offset=264
sample=Piccolo_staccato_FF_G5_RR1.opus
</region>

<region>
hivel=127
key=G7
lovel=46
offset=80
sample=Piccolo_staccato_FF_G6_RR1.opus
</region>

<region>
hivel=45
key=A#5
lovel=0
offset=251
sample=Piccolo_staccato_PP_A#4_RR1.opus
</region>

<region>
hivel=45
key=A#6
lovel=0
offset=900
sample=Piccolo_staccato_PP_A#5_RR1.opus
</region>

<region>
hivel=45
key=A5
lovel=0
offset=595
sample=Piccolo_staccato_PP_A4_RR1.opus
</region>

<region>
hivel=45
key=A6
lovel=0
offset=969
sample=Piccolo_staccato_PP_A5_RR1.opus
</region>

<region>
hivel=45
key=B5
lovel=0
offset=92
sample=Piccolo_staccato_PP_B4_RR1.opus
</region>

<region>
hivel=45
key=B6
lovel=0
offset=492
sample=Piccolo_staccato_PP_B5_RR1.opus
</region>

<region>
hivel=45
key=C#6
lovel=0
offset=599
sample=Piccolo_staccato_PP_C#5_RR1.opus
</region>

<region>
hivel=45
key=C#7
lovel=0
sample=Piccolo_staccato_PP_C#6_RR1.opus
</region>

<region>
hivel=45
key=C6
lovel=0
offset=483
sample=Piccolo_staccato_PP_C5_RR1.opus
</region>

<region>
hivel=45
key=C7
lovel=0
offset=1353
sample=Piccolo_staccato_PP_C6_RR1.opus
</region>

<region>
hivel=45
key=D#5
lovel=0
sample=Piccolo_staccato_PP_D#4_RR1.opus
</region>

<region>
hivel=45
key=D#6
lovel=0
sample=Piccolo_staccato_PP_D#5_RR1.opus
</region>

<region>
hivel=45
key=D#7
lovel=0
offset=487
sample=Piccolo_staccato_PP_D#6_RR1.opus
</region>

<region>
hivel=45
key=D5
lovel=0
offset=743
sample=Piccolo_staccato_PP_D4_RR1.opus
</region>

<region>
hivel=45
key=D6
lovel=0
offset=991
sample=Piccolo_staccato_PP_D5_RR1.opus
</region>

<region>
hivel=45
key=D7
lovel=0
offset=160
sample=Piccolo_staccato_PP_D6_RR1.opus
</region>

<region>
hivel=45
key=E5
lovel=0
sample=Piccolo_staccato_PP_E4_RR1.opus
</region>

<region>
hivel=45
key=E6
lovel=0
offset=311
sample=Piccolo_staccato_PP_E5_RR1.opus
</region>

<region>
hivel=45
key=E7
lovel=0
offset=102
sample=Piccolo_staccato_PP_E6_RR1.opus
</region>

<region>
hivel=45
key=F#5
lovel=0
offset=23
sample=Piccolo_staccato_PP_F#4_RR1.opus
</region>

<region>
hivel=45
key=F#6
lovel=0
offset=1740
sample=Piccolo_staccato_PP_F#5_RR1.opus
</region>

<region>
hivel=45
key=F#7
lovel=0
offset=1062
sample=Piccolo_staccato_PP_F#6_RR1.opus
</region>

<region>
hivel=45
key=F5
lovel=0
offset=343
sample=Piccolo_staccato_PP_F4_RR1.opus
</region>

<region>
hivel=45
key=F6
lovel=0
offset=789
sample=Piccolo_staccato_PP_F5_RR1.opus
</region>

<region>
hivel=45
key=F7
lovel=0
offset=334
sample=Piccolo_staccato_PP_F6_RR1.opus
</region>

<region>
hivel=45
key=G#5
lovel=0
offset=1192
sample=Piccolo_staccato_PP_G#4_RR1.opus
</region>

<region>
hivel=45
key=G#6
lovel=0
offset=1203
sample=Piccolo_staccato_PP_G#5_RR1.opus
</region>

<region>
hivel=45
key=G#7
lovel=0
offset=122
sample=Piccolo_staccato_PP_G#6_RR1.opus
</region>

<region>
hivel=45
key=G5
lovel=0
offset=1520
sample=Piccolo_staccato_PP_G4_RR1.opus
</region>

<region>
hivel=45
key=G6
lovel=0
offset=1226
sample=Piccolo_staccato_PP_G5_RR1.opus
</region>

<region>
hivel=45
key=G7
lovel=0
offset=1109
sample=Piccolo_staccato_PP_G6_RR1.opus
</region>
</group>

<group>
amp_veltrack=100.0
group_label=RR2
seq_length=2
seq_position=2

<region>
hivel=127
key=A#5
lovel=46
offset=710
sample=Piccolo_staccato_FF_A#4_RR2.opus
</region>

<region>
hivel=127
key=A#6
lovel=46
offset=244
sample=Piccolo_staccato_FF_A#5_RR2.opus
</region>

<region>
hivel=127
key=A5
lovel=46
offset=126
sample=Piccolo_staccato_FF_A4_RR2.opus
</region>

<region>
hivel=127
key=A6
lovel=46
sample=Piccolo_staccato_FF_A5_RR2.opus
</region>

<region>
hivel=127
key=B5
lovel=46
offset=406
sample=Piccolo_staccato_FF_B4_RR2.opus
</region>

<region>
hivel=127
key=B6
lovel=46
sample=Piccolo_staccato_FF_B5_RR2.opus
</region>

<region>
hikey=C#6
hivel=127
lokey=C#6
lovel=46
pitch_keycenter=D6
sample=Piccolo_staccato_FF_C#5_RR2.opus
</region>

<region>
hivel=127
key=C#7
lovel=46
sample=Piccolo_staccato_FF_C#6_RR2.opus
</region>

<region>
hivel=127
key=C6
lovel=46
offset=63
sample=Piccolo_staccato_FF_C5_RR2.opus
</region>

<region>
hivel=127
key=C7
lovel=46
sample=Piccolo_staccato_FF_C6_RR2.opus
</region>

<region>
hivel=127
key=D#5
lovel=46
offset=138
sample=Piccolo_staccato_FF_D#4_RR2.opus
</region>

<region>
hivel=127
key=D#6
lovel=46
offset=693
sample=Piccolo_staccato_FF_D#5_RR2.opus
</region>

<region>
hivel=127
key=D#7
lovel=46
offset=24
sample=Piccolo_staccato_FF_D#6_RR2.opus
</region>

<region>
hivel=127
key=D5
lovel=46
offset=344
sample=Piccolo_staccato_FF_D4_RR2.opus
</region>

<region>
hivel=127
key=D6
lovel=46
sample=Piccolo_staccato_FF_D5_RR2.opus
</region>

<region>
hivel=127
key=D7
lovel=46
sample=Piccolo_staccato_FF_D6_RR2.opus
</region>

<region>
hivel=127
key=E5
lovel=46
offset=1441
sample=Piccolo_staccato_FF_E4_RR2.opus
</region>

<region>
hivel=127
key=E6
lovel=46
sample=Piccolo_staccato_FF_E5_RR2.opus
</region>

<region>
hivel=127
key=E7
lovel=46
offset=18
sample=Piccolo_staccato_FF_E6_RR2.opus
</region>

<region>
hivel=127
key=F#5
lovel=46
sample=Piccolo_staccato_FF_F#4_RR2.opus
</region>

<region>
hivel=127
key=F#6
lovel=46
offset=104
sample=Piccolo_staccato_FF_F#5_RR2.opus
</region>

<region>
hivel=127
key=F#7
lovel=46
offset=114
sample=Piccolo_staccato_FF_F#6_RR2.opus
tune=-93
</region>

<region>
hivel=127
key=F5
lovel=46
offset=344
sample=Piccolo_staccato_FF_F4_RR2.opus
</region>

<region>
hivel=127
key=F6
lovel=46
offset=61
sample=Piccolo_staccato_FF_F5_RR2.opus
</region>

<region>
hivel=127
key=F7
lovel=46
offset=139
sample=Piccolo_staccato_FF_F6_RR2.opus
</region>

<region>
hivel=127
key=G#5
lovel=46
offset=470
sample=Piccolo_staccato_FF_G#4_RR2.opus
</region>

<region>
hivel=127
key=G#6
lovel=46
offset=121
sample=Piccolo_staccato_FF_G#5_RR2.opus
</region>

<region>
hivel=127
key=G#7
lovel=46
offset=246
sample=Piccolo_staccato_FF_G#6_RR2.opus
</region>

<region>
hivel=127
key=G5
lovel=46
offset=134
sample=Piccolo_staccato_FF_G4_RR2.opus
</region>

<region>
hivel=127
key=G6
lovel=46
sample=Piccolo_staccato_FF_G5_RR2.opus
</region>

<region>
hivel=127
key=G7
lovel=46
sample=Piccolo_staccato_FF_G6_RR2.opus
</region>

<region>
hivel=45
key=A#5
lovel=0
offset=474
sample=Piccolo_staccato_PP_A#4_RR2.opus
</region>

<region>
hivel=45
key=A#6
lovel=0
offset=609
sample=Piccolo_staccato_PP_A#5_RR2.opus
</region>

<region>
hivel=45
key=A5
lovel=0
sample=Piccolo_staccato_PP_A4_RR2.opus
</region>

<region>
hivel=45
key=A6
lovel=0
offset=455
sample=Piccolo_staccato_PP_A5_RR2.opus
</region>

<region>
hivel=45
key=B5
lovel=0
offset=304
sample=Piccolo_staccato_PP_B4_RR2.opus
</region>

<region>
hivel=45
key=B6
lovel=0
offset=600
sample=Piccolo_staccato_PP_B5_RR2.opus
</region>

<region>
hivel=45
key=C#6
lovel=0
offset=295
sample=Piccolo_staccato_PP_C#5_RR2.opus
</region>

<region>
hivel=45
key=C#7
lovel=0
sample=Piccolo_staccato_PP_C#6_RR2.opus
</region>

<region>
hivel=45
key=C6
lovel=0
sample=Piccolo_staccato_PP_C5_RR2.opus
</region>

<region>
hivel=45
key=C7
lovel=0
offset=510
sample=Piccolo_staccato_PP_C6_RR2.opus
</region>

<region>
hivel=45
key=D#5
lovel=0
sample=Piccolo_staccato_PP_D#4_RR2.opus
</region>

<region>
hivel=45
key=D#6
lovel=0
offset=2072
sample=Piccolo_staccato_PP_D#5_RR2.opus
</region>

<region>
hivel=45
key=D#7
lovel=0
sample=Piccolo_staccato_PP_D#6_RR2.opus
</region>

<region>
hivel=45
key=D5
lovel=0
sample=Piccolo_staccato_PP_D4_RR2.opus
</region>

<region>
hivel=45
key=D6
lovel=0
offset=385
sample=Piccolo_staccato_PP_D5_RR2.opus
</region>

<region>
hivel=45
key=D7
lovel=0
offset=8
sample=Piccolo_staccato_PP_D6_RR2.opus
</region>

<region>
hivel=45
key=E5
lovel=0
sample=Piccolo_staccato_PP_E4_RR2.opus
</region>

<region>
hivel=45
key=E6
lovel=0
offset=1198
sample=Piccolo_staccato_PP_E5_RR2.opus
</region>

<region>
hivel=45
key=E7
lovel=0
offset=413
sample=Piccolo_staccato_PP_E6_RR2.opus
</region>

<region>
hivel=45
key=F#5
lovel=0
sample=Piccolo_staccato_PP_F#4_RR2.opus
</region>

<region>
hivel=45
key=F#6
lovel=0
offset=445
sample=Piccolo_staccato_PP_F#5_RR2.opus
</region>

<region>
hivel=45
key=F#7
lovel=0
offset=758
sample=Piccolo_staccato_PP_F#6_RR2.opus
</region>

<region>
hivel=45
key=F5
lovel=0
offset=443
sample=Piccolo_staccato_PP_F4_RR2.opus
</region>

<region>
hivel=45
key=F6
lovel=0
offset=779
sample=Piccolo_staccato_PP_F5_RR2.opus
</region>

<region>
hivel=45
key=F7
lovel=0
offset=110
sample=Piccolo_staccato_PP_F6_RR2.opus
</region>

<region>
hivel=45
key=G#5
lovel=0
offset=1331
sample=Piccolo_staccato_PP_G#4_RR2.opus
</region>

<region>
hivel=45
key=G#6
lovel=0
offset=665
sample=Piccolo_staccato_PP_G#5_RR2.opus
</region>

<region>
hivel=45
key=G#7
lovel=0
offset=418
sample=Piccolo_staccato_PP_G#6_RR2.opus
</region>

<region>
hivel=45
key=G5
lovel=0
offset=691
sample=Piccolo_staccato_PP_G4_RR2.opus
</region>

<region>
hivel=45
key=G6
lovel=0
offset=1366
sample=Piccolo_staccato_PP_G5_RR2.opus
</region>

<region>
hivel=45
key=G7
lovel=0
offset=357
sample=Piccolo_staccato_PP_G6_RR2.opus
</region>
</group>